<svg width="48" height="48" viewBox="0 0 48 48" fill="none" xmlns="http://www.w3.org/2000/svg">
<g clip-path="url(#clip0_403_39)">
<rect width="48" height="48" rx="24" fill="black"/>
<path fill-rule="evenodd" clip-rule="evenodd" d="M21.7907 23.8818C21.208 22.9072 20.666 22.3867 20.4962 22.2736L22.9469 18.5976C23.8816 19.2207 24.8307 20.357 25.5825 21.6145C26.3655 22.9238 27.073 24.5932 27.3644 26.4425C27.6581 28.3067 27.5334 30.398 26.5831 32.4451C25.6287 34.501 23.9226 36.3374 21.3482 37.8145C19.2241 39.0332 18.2982 40.1537 17.8998 41.0079C17.5169 41.8289 17.5031 42.6562 17.7337 43.5691C17.978 44.5366 18.4648 45.4817 19.0089 46.4828C19.0364 46.5335 19.0645 46.5851 19.0931 46.6374C19.3225 47.0585 19.578 47.5274 19.7743 47.9547C19.9711 48.3831 20.2719 49.0989 20.2719 49.8887L15.8539 49.8886C15.8539 50.0018 15.8703 50.069 15.8695 50.0692C15.8685 50.0694 15.8469 49.9887 15.7598 49.7992C15.6305 49.5178 15.4521 49.1898 15.2043 48.7342C15.1793 48.6883 15.1536 48.641 15.1271 48.5924C14.5961 47.6153 13.8474 46.2233 13.4502 44.651C13.0393 43.0241 12.9779 41.1088 13.8959 39.1406C14.7984 37.2056 16.5217 35.4902 19.1496 33.9824C21.0669 32.8824 22.0668 31.6814 22.5759 30.5849C23.089 29.4796 23.1851 28.3034 23.0003 27.1303C22.8131 25.9422 22.3424 24.8044 21.7907 23.8818Z" fill="#8D8C8B"/>
<path d="M14.3809 12.3359C21.4496 18.8156 29.1074 15.0358 33.5254 12.3359C32.5436 8.89973 29.1074 4.23633 23.2168 4.23633C18.7988 4.23633 15.3626 8.89973 14.3809 12.3359Z" fill="#849DFF"/>
<path fill-rule="evenodd" clip-rule="evenodd" d="M16.9795 6.4872C18.5957 4.80629 20.7384 3.5 23.2168 3.5C29.553 3.5 33.1981 8.51006 34.2334 12.1336L34.3872 12.6722L33.9093 12.9642C31.6813 14.3258 28.5558 16.013 25.05 16.5074C21.5033 17.0075 17.5953 16.2813 13.8833 12.8787L13.5479 12.5712L13.6729 12.1336C14.1967 10.3001 15.362 8.16941 16.9795 6.4872ZM15.2253 12.1022C18.4727 14.9118 21.799 15.4786 24.8443 15.0491C27.8046 14.6317 30.5223 13.268 32.6476 12.0053C31.5354 8.83734 28.3688 4.97265 23.2168 4.97265C21.2772 4.97265 19.4928 5.99806 18.041 7.50791C16.7199 8.88185 15.7363 10.5963 15.2253 12.1022Z" fill="black"/>
<path d="M4.8086 23.3808C6.28186 15.2812 11.9304 9.91205 14.6302 10.1575C15.3665 10.4029 16.6918 11.3356 16.1028 13.1028C13.7465 18.4043 9.22644 27.7988 6.28125 26.3261C4.07204 25.5898 4.56316 24.3626 4.8086 23.3808Z" fill="white"/>
<path fill-rule="evenodd" clip-rule="evenodd" d="M11.7675 10.3604C12.7547 9.72987 13.7832 9.34103 14.6969 9.42409L14.782 9.43183L14.8631 9.45886C15.343 9.61884 16.0013 9.99187 16.4607 10.6286C16.9471 11.3028 17.1718 12.2243 16.8013 13.3355L16.7901 13.3693L16.7757 13.4017C15.5964 16.0552 13.8588 19.7723 12.0347 22.649C11.1271 24.0804 10.1662 25.3556 9.20867 26.1836C8.29707 26.972 7.14675 27.5485 6.00193 27.0089C4.79925 26.5982 4.10956 25.9723 3.90766 25.114C3.81459 24.7184 3.84434 24.3399 3.89905 24.0254C3.93884 23.7967 4.00164 23.5574 4.052 23.3655C4.06529 23.3148 4.07771 23.2675 4.08861 23.2245C4.85187 19.0541 6.68689 15.5802 8.69343 13.1687C9.69812 11.9613 10.7586 11.0048 11.7675 10.3604ZM9.82546 14.1106C7.96837 16.3425 6.24574 19.5942 5.53304 23.5125L5.52875 23.5361L5.52294 23.5593C5.50206 23.6429 5.48199 23.7194 5.46305 23.7916C5.41732 23.9661 5.37815 24.1155 5.34991 24.2778C5.31255 24.4925 5.31158 24.6509 5.34119 24.7768C5.38209 24.9507 5.53627 25.3016 6.51408 25.6275L6.56374 25.644L6.61056 25.6675C6.92189 25.8231 7.42076 25.7829 8.24538 25.0697C9.03731 24.3849 9.90597 23.2562 10.791 21.8604C12.5448 19.0946 14.2383 15.4832 15.4146 12.8381C15.6182 12.2 15.476 11.7807 15.2664 11.4902C15.0507 11.1912 14.728 10.9865 14.4788 10.886C14.0403 10.8763 13.3825 11.0763 12.5601 11.6015C11.7046 12.148 10.7545 12.994 9.82546 14.1106Z" fill="black"/>
<path d="M9.96314 24.8535C11.3115 15.2813 14.2615 12.2496 16.955 11.9419C17.7258 12.0328 19.2128 12.677 18.9948 14.527C17.7637 20.1965 15.8537 24.4774 12.9084 27.0625C11.4356 27.0625 9.69162 26.7786 9.96314 24.8535Z" fill="white"/>
<path fill-rule="evenodd" clip-rule="evenodd" d="M12.3293 14.5339C13.66 12.3999 15.2489 11.3956 16.8709 11.2103L16.9558 11.2006L17.0407 11.2106C17.5431 11.2699 18.2634 11.5015 18.8424 12.0317C19.4556 12.5932 19.8626 13.4499 19.7255 14.6132L19.7213 14.6485L19.7138 14.6832C18.4712 20.4057 16.5166 24.8748 13.3936 27.6158L13.1851 27.7988L12.9078 27.7988C12.1594 27.7988 11.1943 27.7334 10.4355 27.3301C10.0371 27.1183 9.67277 26.8016 9.44223 26.3395C9.2126 25.8792 9.14991 25.3431 9.23345 24.7507C9.23346 24.7507 9.23346 24.7507 9.23346 24.7507M12.3293 14.5339C11.0098 16.6499 9.91464 19.9151 9.23346 24.7507ZM13.5789 15.3131C12.413 17.1829 11.3589 20.2196 10.6917 24.9562L10.6917 24.9563C10.6395 25.3265 10.693 25.5477 10.76 25.6821C10.8261 25.8147 10.9389 25.9299 11.1267 26.0297C11.4865 26.221 12.0202 26.3038 12.6298 26.3221C15.2774 23.8781 17.0778 19.8636 18.2666 14.4075C18.3365 13.7415 18.1121 13.3597 17.8479 13.1178C17.5739 12.867 17.213 12.7318 16.948 12.685C15.8978 12.8339 14.7015 13.513 13.5789 15.3131Z" fill="black"/>
<path d="M43.8339 23.3809C38.7136 13.0636 35.4071 9.91269 32.4674 10.1574C30.864 10.2909 30.2227 11.332 30.8641 13.094C33.4296 18.38 39.4157 27.0625 42.2305 26.3175C44.5699 25.5899 44.5605 24.8449 43.8339 23.3809Z" fill="white"/>
<path fill-rule="evenodd" clip-rule="evenodd" d="M37.8813 12.3169C35.9783 10.1932 34.2088 9.27347 32.4064 9.42351C31.468 9.50163 30.6275 9.86482 30.1827 10.6531C29.7505 11.419 29.8174 12.3711 30.1722 13.3458L30.1852 13.3814L30.2017 13.4154C31.5068 16.1045 33.6729 19.6424 35.8767 22.4245C36.9766 23.813 38.1093 25.0432 39.1699 25.8855C39.7 26.3065 40.2369 26.6506 40.7641 26.8629C41.2894 27.0745 41.8608 27.1769 42.4189 27.0292L42.4341 27.0252L42.4492 27.0205C43.0601 26.8305 43.5643 26.6258 43.9563 26.3844C44.352 26.1407 44.6785 25.8316 44.8577 25.4178C45.0391 24.9988 45.0256 24.5743 44.9363 24.1887C44.8496 23.8147 44.6808 23.4307 44.4935 23.0535C41.9255 17.8789 39.7834 14.4396 37.8813 12.3169ZM36.7846 13.2997C38.5508 15.2706 40.6221 18.5654 43.1744 23.7081C43.3505 24.0629 43.4552 24.321 43.5016 24.5211C43.5453 24.7097 43.5241 24.7914 43.5063 24.8327C43.4862 24.879 43.4218 24.9841 43.1841 25.1305C42.9452 25.2776 42.5787 25.437 42.0299 25.6087C41.8836 25.6437 41.6555 25.6343 41.3143 25.4969C40.9653 25.3564 40.5527 25.1031 40.0857 24.7322C39.1521 23.9909 38.1002 22.8598 37.031 21.5101C34.9063 18.8277 32.8059 15.4002 31.5436 12.8075C31.2714 12.0416 31.3382 11.6019 31.4653 11.3768C31.5816 11.1706 31.8635 10.9465 32.5285 10.8911L32.4761 10.2615L32.5285 10.8911C33.6658 10.7964 35.0194 11.3298 36.7846 13.2997Z" fill="black"/>
<path d="M37.2072 27.0625C35.7338 18.2265 31.656 13.5613 29.1951 12.424C28.4348 12.2684 26.8207 12.4134 26.4472 14.2384C25.837 20.0078 32.0528 27.0625 34.0792 29.2116C35.734 29.2715 36.4704 28.5351 37.2072 27.0625Z" fill="white"/>
<path fill-rule="evenodd" clip-rule="evenodd" d="M34.195 16.4654C32.6389 13.9809 30.9082 12.4048 29.5035 11.7556L29.4259 11.7197L29.3422 11.7026C28.8465 11.6012 28.09 11.5951 27.3738 11.9168C26.6154 12.2575 25.9601 12.9432 25.7253 14.0908L25.7182 14.1256L25.7144 14.1609C25.3819 17.305 26.9017 20.6926 28.6506 23.4745C30.4184 26.2866 32.5158 28.6274 33.5429 29.7167L33.7501 29.9365L34.052 29.9474C35.0012 29.9818 35.7771 29.7873 36.4274 29.3017C37.0516 28.8357 37.4827 28.1565 37.8652 27.392L37.9724 27.1777L37.933 26.9414C37.1817 22.4358 35.762 18.9674 34.195 16.4654ZM36.4396 26.944C36.1302 27.5274 35.8529 27.8929 35.5464 28.1217C35.2771 28.3228 34.9322 28.4569 34.399 28.4762C33.344 27.3401 31.4774 25.2041 29.8973 22.6907C28.1921 19.9783 26.9132 16.9693 27.1751 14.3525C27.3179 13.6987 27.6506 13.4069 27.9772 13.2601C28.3163 13.1078 28.7016 13.0928 28.9679 13.1316C30.0207 13.6492 31.5181 14.9657 32.9469 17.2471C34.3754 19.528 35.708 22.7319 36.4396 26.944Z" fill="black"/>
<path d="M19.5345 29.2715C23.2159 24.1173 22.829 15.7378 21.8931 13.1934C21.4655 12.5458 20.2216 11.507 18.6671 12.5334C14.156 16.1815 15.8529 25.5899 15.8529 28.5352C16.3103 30.2421 18.6498 29.7626 19.5345 29.2715Z" fill="white"/>
<path fill-rule="evenodd" clip-rule="evenodd" d="M23.1799 20.3129C23.4308 17.2004 23.1039 14.3504 22.5848 12.9392L22.5553 12.859L22.5083 12.7877C22.2295 12.3655 21.6988 11.8262 20.9649 11.5473C20.1878 11.2519 19.2395 11.2734 18.262 11.9189L18.2324 11.9384L18.2047 11.9608C15.6815 14.0013 14.9741 17.5642 14.8334 20.7654C14.7618 22.3937 14.835 23.9912 14.9242 25.3534C14.9523 25.7831 14.9815 26.1836 15.0084 26.5527C15.0686 27.3792 15.1173 28.0482 15.1173 28.5352L15.1173 28.6321L15.1424 28.7257C15.304 29.3291 15.6483 29.7747 16.1049 30.0624C16.5441 30.3391 17.0443 30.4437 17.5028 30.4633C18.4029 30.5017 19.3424 30.2207 19.8926 29.9152L20.0379 29.8346L20.1344 29.6994C22.0832 26.9709 22.928 23.4381 23.1799 20.3129ZM19.0389 28.697C18.6778 28.8605 18.0958 29.0146 17.5655 28.9919C17.2713 28.9794 17.0456 28.9145 16.8899 28.8164C16.767 28.739 16.6588 28.6242 16.5892 28.4241C16.5826 27.8911 16.5307 27.1783 16.4722 26.3743C16.4462 26.0174 16.4189 25.6424 16.3937 25.2572C16.3057 23.913 16.2366 22.3782 16.3046 20.8301C16.4425 17.6939 17.1362 14.7418 19.1024 13.129C19.6655 12.7678 20.1071 12.7967 20.4417 12.9239C20.7893 13.056 21.0724 13.3179 21.2332 13.5336C21.6356 14.7091 21.9481 17.2663 21.712 20.1946C21.4759 23.124 20.7005 26.2885 19.0389 28.697Z" fill="black"/>
<path d="M30.0611 31.4807C30.7973 25.3927 27.718 15.2575 26.1555 13.0421C25.5748 12.5271 24.1044 11.8457 22.8685 13.2394C19.4554 17.9308 24.1654 28.8072 25.4255 31.4807C26.3091 33.0111 29.8622 33.1208 30.0611 31.4807Z" fill="white"/>
<path fill-rule="evenodd" clip-rule="evenodd" d="M28.2192 15.7483C27.7196 14.3841 27.2071 13.2564 26.7566 12.6176L26.7073 12.5478L26.6433 12.4911C26.2648 12.1554 25.6126 11.7719 24.8316 11.6924C24.0045 11.6083 23.0941 11.8745 22.3169 12.7509L22.2933 12.7775L22.2724 12.8062C21.2935 14.1517 20.9335 15.8852 20.9139 17.6848C20.8943 19.4919 21.2169 21.4418 21.6794 23.2949C22.6046 27.0021 24.1199 30.4392 24.7586 31.7944L24.7717 31.8221L24.787 31.8486C25.1114 32.4105 25.6482 32.7924 26.2006 33.0321C26.7586 33.2743 27.3892 33.3976 27.9894 33.4056C28.5834 33.4136 29.2041 33.3091 29.7181 33.0397C30.2467 32.7627 30.705 32.2804 30.7912 31.569L30.7913 31.5688C31.1755 28.3916 30.5644 24.2323 29.6849 20.6342C29.2425 18.8245 28.7264 17.1333 28.2192 15.7483ZM29.3293 31.3917C29.6813 28.4811 29.1209 24.529 28.2543 20.9839C27.8236 19.2219 27.3229 17.5835 26.8363 16.2547C26.367 14.9731 25.93 14.0338 25.6039 13.5409C25.3926 13.3743 25.0518 13.1951 24.6825 13.1575C24.3264 13.1213 23.8925 13.2076 23.442 13.7021C22.7291 14.6999 22.4042 16.0742 22.3865 17.7008C22.3687 19.3359 22.6624 21.1518 23.1082 22.9383C23.9926 26.4819 25.4459 29.7948 26.0756 31.1345C26.1973 31.3304 26.4319 31.5271 26.787 31.6813C27.1499 31.8388 27.5857 31.9274 28.0091 31.9331C28.4387 31.9388 28.7988 31.8588 29.0345 31.7353C29.2556 31.6195 29.316 31.5005 29.3293 31.3919" fill="black"/>
<path fill-rule="evenodd" clip-rule="evenodd" d="M24.7619 12.7113C24.9613 12.7511 25.0906 12.9451 25.0507 13.1445C24.7003 14.8966 25.0474 16.6665 25.506 18.409C25.59 18.7282 25.6784 19.0481 25.7666 19.3673C26.1503 20.7562 26.5305 22.1326 26.5305 23.3809C26.5305 23.5842 26.3657 23.749 26.1624 23.749C25.9591 23.749 25.7942 23.5842 25.7942 23.3809C25.7942 22.2425 25.4493 20.9905 25.0685 19.6085C24.9776 19.2786 24.8847 18.9413 24.7939 18.5964C24.3321 16.8414 23.9428 14.9296 24.3287 13.0001C24.3686 12.8007 24.5625 12.6714 24.7619 12.7113Z" fill="black"/>
<path fill-rule="evenodd" clip-rule="evenodd" d="M20.4356 12.743C20.6175 12.8339 20.6912 13.0551 20.6003 13.2369C19.168 16.1014 19.1665 18.2371 19.1665 20.4356C19.1665 20.6389 19.0017 20.8037 18.7983 20.8037C18.595 20.8037 18.4302 20.6389 18.4302 20.4356V20.4288C18.4302 18.2114 18.4302 15.9307 19.9417 12.9076C20.0326 12.7258 20.2538 12.6521 20.4356 12.743Z" fill="black"/>
<path fill-rule="evenodd" clip-rule="evenodd" d="M17.4903 12.743C17.6722 12.8339 17.7459 13.0551 17.655 13.2369C17.1237 14.2994 16.4915 15.2785 15.912 16.176C15.6781 16.5383 15.4528 16.8872 15.2462 17.223C14.5099 18.4195 14.0122 19.4448 14.0122 20.4356C14.0122 20.6389 13.8474 20.8037 13.644 20.8037C13.4407 20.8037 13.2759 20.6389 13.2759 20.4356C13.2759 19.2173 13.8827 18.0337 14.6191 16.8371C14.8419 16.475 15.0771 16.1108 15.3167 15.7398C15.888 14.8552 16.4842 13.932 16.9964 12.9076C17.0873 12.7258 17.3085 12.6521 17.4903 12.743Z" fill="black"/>
<path fill-rule="evenodd" clip-rule="evenodd" d="M15.4665 11.4832C15.5308 11.6761 15.4265 11.8846 15.2336 11.9489C14.2205 12.2866 13.1682 13.1494 12.1672 14.2414C11.1737 15.3253 10.2655 16.5956 9.53293 17.6944C9.42014 17.8636 9.19156 17.9093 9.02238 17.7965C8.8532 17.6837 8.80748 17.4552 8.92027 17.286C9.6604 16.1758 10.593 14.869 11.6244 13.7439C12.6483 12.6269 13.805 11.6489 15.0008 11.2503C15.1937 11.186 15.4022 11.2903 15.4665 11.4832Z" fill="black"/>
<path fill-rule="evenodd" clip-rule="evenodd" d="M31.7034 10.7468C31.6391 10.9397 31.7434 11.1482 31.9363 11.2125C32.394 11.3651 32.8931 11.7649 33.4202 12.3705C33.9411 12.969 34.4579 13.7312 34.96 14.5528C35.4244 15.3127 35.8696 16.1124 36.2903 16.8678C36.3239 16.9282 36.3574 16.9883 36.3907 17.0481C36.8376 17.8502 37.2591 18.6003 37.637 19.1671C37.7498 19.3363 37.9784 19.382 38.1475 19.2692C38.3167 19.1564 38.3624 18.9278 38.2497 18.7586C37.8912 18.221 37.4844 17.4983 37.0339 16.6897C37.0003 16.6294 36.9664 16.5686 36.9324 16.5075C36.5131 15.7544 36.0608 14.9421 35.5883 14.1688C35.0779 13.3337 34.5362 12.5312 33.9756 11.8871C33.4213 11.2502 32.8159 10.7296 32.1691 10.514C31.9762 10.4497 31.7677 10.5539 31.7034 10.7468Z" fill="black"/>
<path fill-rule="evenodd" clip-rule="evenodd" d="M27.286 12.9559C27.2217 13.1488 27.3259 13.3573 27.5188 13.4216C27.9808 13.5756 28.4343 13.9337 28.8855 14.4619C29.3343 14.9874 29.7578 15.6537 30.1676 16.3822C30.4927 16.9601 30.8029 17.5656 31.1082 18.1617C31.1878 18.3171 31.2671 18.4719 31.3463 18.6254C31.7255 19.3609 32.1022 20.0683 32.4832 20.6398C32.596 20.809 32.8246 20.8547 32.9937 20.7419C33.1629 20.6291 33.2086 20.4005 33.0958 20.2314C32.7405 19.6984 32.3809 19.0252 32.0007 18.288C31.9236 18.1384 31.8457 17.9863 31.7669 17.8325C31.4609 17.2351 31.1422 16.6129 30.8094 16.0212C30.3908 15.2771 29.9399 14.5627 29.4453 13.9837C28.9531 13.4074 28.3941 12.9372 27.7516 12.723C27.5587 12.6587 27.3503 12.763 27.286 12.9559Z" fill="black"/>
</g>
<defs>
<clipPath id="clip0_403_39">
<rect width="48" height="48" rx="24" fill="white"/>
</clipPath>
</defs>
</svg>
